<svg xmlns="http://www.w3.org/2000/svg" width="354" height="102" viewBox="0 0 265.6 76.82"><path d="M85.28 27.9a26.37 26.37 0 0 1-2.73 7.29H88a26.37 26.37 0 0 1-2.73-7.3m19.94.01a26.35 26.35 0 0 1-7.28-2.73v5.46a26.35 26.35 0 0 1 7.28-2.73"/><path fill="none" stroke="#000" stroke-linecap="round" stroke-linejoin="round" stroke-miterlimit="10" d="M148.39 15.94h-30.66a11.96 11.96 0 0 0 0 23.92h30.66a11.96 11.96 0 0 0 0-23.92z"/><text x="111.9" y="32.41" font-family="Courier New" font-size="14" font-weight="700"><tspan x="111.9" y="32.41">value</tspan></text><path fill="none" stroke="#000" stroke-linecap="round" stroke-linejoin="round" stroke-miterlimit="10" d="M233.23 15.94a11.96 11.96 0 1 0 0 23.91 11.96 11.96 0 0 0 0-23.91z"/><text x="229.96" y="30.91" font-family="Courier New" font-size="14" font-weight="700"><tspan x="229.96" y="30.91">]</tspan></text><path fill="none" stroke="#000" stroke-linecap="round" stroke-linejoin="round" stroke-miterlimit="10" d="M160.5 27.9h53.73"/><path d="M220.72 27.9a26.35 26.35 0 0 1-7.29-2.73v5.46a26.35 26.35 0 0 1 7.29-2.73m-19.94 0c.36-1.95 1.46-5.1 2.73-7.29h-5.46a26.37 26.37 0 0 1 2.73 7.29"/><path fill="none" stroke="#000" stroke-linecap="round" stroke-linejoin="round" stroke-miterlimit="10" d="M245.53 27.9h13.38"/><path d="M265.46 27.9a26.35 26.35 0 0 1-7.28-2.74v5.47a26.35 26.35 0 0 1 7.28-2.73"/><path fill="none" stroke="#000" stroke-linecap="round" stroke-linejoin="round" stroke-miterlimit="10" d="M120.78 63.85H93.25a7.97 7.97 0 0 1-7.97-7.98V32.12"/><path fill="none" stroke="#000" stroke-linecap="round" stroke-linejoin="round" stroke-miterlimit="10" d="M133.06 51.88a11.96 11.96 0 1 0 0 23.92 11.96 11.96 0 0 0 0-23.92z"/><text x="128.79" y="66.85" font-family="Courier New" font-size="14" font-weight="700"><tspan x="128.79" y="66.85">,</tspan></text><path d="M145.58 63.85c1.94.37 5.1 1.46 7.29 2.74v-5.47a26.35 26.35 0 0 1-7.29 2.73"/><path fill="none" stroke="#000" stroke-linecap="round" stroke-linejoin="round" stroke-miterlimit="10" d="M180.85 28.01v27.87c0 4.4-3.57 7.97-7.98 7.97h-21.92M45.42 27.9H99.9m-34.55 0V9.02c0-4.4 3.6-8.43 7.97-7.97h119.49c4.4 0 7.97 3.57 7.97 7.97v12.32M.54 27.9h13.37"/><path d="M20.47 27.9a26.35 26.35 0 0 1-7.29-2.73v5.46a26.35 26.35 0 0 1 7.29-2.73"/><path fill="none" stroke="#000" stroke-linecap="round" stroke-linejoin="round" stroke-miterlimit="10" d="M32.99 15.94a11.96 11.96 0 1 0 0 23.91 11.96 11.96 0 0 0 0-23.91z"/><text x="27.91" y="30.91" font-family="Courier New" font-size="14" font-weight="700"><tspan x="27.91" y="30.91">[</tspan></text></svg>