<svg xmlns="http://www.w3.org/2000/svg" width="430.5" height="71.3" viewBox="0 0 323 53.7"><circle cx="299.4" cy="24.2" r="23.7" fill="none" stroke="#000" class="inactiveStates"/><circle cx="299.4" cy="24.2" r="19.7" fill="none" stroke="#000" class="inactiveStates"/><text x="299.4" y="28.4" font-family="'Courier New'" font-size="14" text-anchor="middle"><tspan font-weight="700">s3</tspan></text><circle cx="33.1" cy="24.2" r="19.7" fill="none" stroke="#000" class="currentState"/><text x="33.1" y="28.4" font-family="'Courier New'" font-size="14" text-anchor="middle"><tspan font-weight="700">s0</tspan></text><path stroke="#000" stroke-width="2" d="m.4 20.7 10 3.5-10 3.5z"/><circle cx="110" cy="24.2" r="19.7" fill="none" stroke="#000" class="inactiveStates"/><text x="110" y="28.4" font-family="'Courier New'" font-size="14" text-anchor="middle"><tspan font-weight="700">s1</tspan></text><path fill="none" stroke="#000" d="M52.8 24.2h27.3"/><path stroke="#000" d="m80.2 20.7 10 3.5-10 3.5z"/><text x="68.5" y="18.5" font-family="'Courier New'" font-size="14" text-anchor="middle"><tspan font-weight="700">[</tspan></text><circle cx="215.5" cy="24.2" r="19.7" fill="none" stroke="#000" class="inactiveStates"/><text x="215.5" y="28.4" font-family="'Courier New'" font-size="14" text-anchor="middle"><tspan font-weight="700">s2</tspan></text><path fill="none" stroke="#000" d="M129.8 24.2h55.8"/><path stroke="#000" d="m185.8 20.7 10 3.5-10 3.5z"/><text x="161.2" y="18.5" font-family="'Courier New'" font-size="14" text-anchor="middle"><tspan font-weight="700">value</tspan></text><path fill="none" stroke="#000" d="M235.4 24.2h29.9"/><path stroke="#000" d="m265.5 20.7 10 3.5-10 3.5z"/><text x="254" y="18.5" font-family="'Courier New'" font-size="14" text-anchor="middle"><tspan font-weight="700">]</tspan></text><path fill="none" stroke="#000" d="M202 39.2c-12.6 7.8-30.8 16.2-48 13.5a62 62 0 0 1-20.3-7.7"/><path stroke="#000" d="m135.5 42-3.8 5.9-6.5-8.4z"/><text x="161.3" y="47.4" font-family="'Courier New'" font-size="14" text-anchor="middle"><tspan x="161.3" y="47.4" font-weight="700">,</tspan></text></svg>